<svg width="24" height="24" viewBox="0 0 24 24" fill="none" xmlns="http://www.w3.org/2000/svg">
<rect width="24" height="24" rx="7" fill="#202047"/>
<path d="M13.3538 11.9936C13.3538 11.6315 13.2099 11.2841 12.9539 11.028C12.6978 10.772 12.3505 10.6281 11.9884 10.6281C11.6263 10.6281 11.279 10.772 11.023 11.028C10.7669 11.2841 10.623 11.6315 10.623 11.9936C10.6234 12.3552 10.7671 12.7019 11.0226 12.9577C11.2781 13.2135 11.6246 13.3576 11.9862 13.3584H13.3508V11.9951L13.3538 11.9936Z" fill="white"/>
<path d="M18 18V11.9996C18.0004 10.9937 17.7476 10.0039 17.265 9.1214C16.7825 8.23888 16.0855 7.49202 15.2385 6.94964L15.2303 9.06963L15.2205 11.6138L15.2438 15.2397H12.2031C12.1325 15.2442 12.0612 15.2479 11.9891 15.2479C11.5027 15.248 11.0224 15.1389 10.5837 14.9287C10.145 14.7185 9.75899 14.4125 9.45417 14.0334C9.14935 13.6542 8.93345 13.2115 8.82239 12.7378C8.71132 12.2641 8.7079 11.7716 8.8124 11.2964C8.91689 10.8212 9.12663 10.3756 9.42616 9.99222C9.7257 9.60887 10.1074 9.2976 10.5432 9.08134C10.9789 8.86508 11.4576 8.74933 11.944 8.74263C12.4305 8.73592 12.9122 8.83843 13.3537 9.0426L13.365 6.15765C12.5416 5.96505 11.6868 5.94873 10.8566 6.10976C10.0265 6.27079 9.23976 6.60554 8.54806 7.09204C7.85636 7.57853 7.27532 8.20579 6.84304 8.93266C6.41077 9.65954 6.13703 10.4696 6.03979 11.3097C5.94256 12.1498 6.02401 13.001 6.27881 13.8074C6.53361 14.6139 6.95601 15.3573 7.51828 15.989C8.08056 16.6206 8.77002 17.1263 9.54142 17.4727C10.3128 17.8192 11.1488 17.9986 11.9944 17.9992H17.9992L18 18Z" fill="white"/>
</svg>
