<svg width="24" height="24" viewBox="0 0 24 24" fill="none" xmlns="http://www.w3.org/2000/svg">
<rect width="24" height="24" rx="7" fill="#091F36"/>
<path fill-rule="evenodd" clip-rule="evenodd" d="M5 6.10323V10.8088H6.276V8.81061L7.91509 10.0168L9.55937 8.81061V14.3967L5 11.6888V16.8655H6.276V14.2823L10.8302 16.9949V6.10323L7.91509 8.42754L5 6.10323Z" fill="#70FAF7"/>
<path fill-rule="evenodd" clip-rule="evenodd" d="M15.4775 15.359C14.4552 15.3279 13.6429 14.4904 13.6465 13.47C13.6471 12.4601 14.4676 11.6427 15.4786 11.6437C16.489 11.6448 17.3075 12.4611 17.3086 13.47C17.2977 14.4805 16.4901 15.3031 15.4775 15.3331V15.359ZM15.4775 7.49051C16.1762 7.50138 16.7344 8.07547 16.7235 8.77276C16.7136 9.41933 16.2162 9.95407 15.5709 10.0115H15.4775C14.7726 10.0115 14.2015 9.44159 14.2015 8.73808C14.2015 8.03509 14.7726 7.46463 15.4775 7.46463V7.49051ZM17.931 11.1142L17.8843 11.0572C17.6224 10.8439 17.5835 10.4593 17.7972 10.1979C17.7987 10.1958 17.7998 10.1943 17.8013 10.1927L17.8324 10.1358C18.6053 8.83488 18.1753 7.15506 16.8718 6.38375C15.5683 5.61191 13.8851 6.04105 13.1123 7.34194C12.6003 8.20333 12.6003 9.2749 13.1123 10.1358L13.159 10.2186C13.3753 10.478 13.3405 10.8626 13.0806 11.079C13.0791 11.0805 13.0775 11.0815 13.076 11.0831C12.3928 11.7048 12.0017 12.5833 11.9971 13.5058C11.9971 15.4356 13.5646 17 15.4983 17C17.432 17 18.9995 15.4356 18.9995 13.5058C18.9788 12.5978 18.5939 11.7359 17.931 11.1142Z" fill="#70FAF7"/>
</svg>
