<svg width="24" height="24" viewBox="0 0 24 24" fill="none" xmlns="http://www.w3.org/2000/svg">
<rect width="24" height="24" rx="7" fill="#1792FF"/>
<path d="M14.2856 10.5578L14.2718 13.3247L12 14.6799L12.0137 11.913L14.2856 10.5578Z" fill="#1792FF"/>
<path d="M12.014 11.913L12.0004 14.6799L9.71484 13.3247L9.72851 10.5578L12.014 11.913Z" fill="#1792FF"/>
<path d="M14.286 10.5579L12.0141 11.9131L9.72852 10.5579L12.0004 9.20266L14.286 10.5579Z" fill="white"/>
<path fill-rule="evenodd" clip-rule="evenodd" d="M11.928 9.07554C11.9722 9.04917 12.0268 9.0491 12.071 9.07535L14.3566 10.4306C14.4011 10.4569 14.4284 10.5058 14.4281 10.5586L14.4144 13.3255C14.4142 13.3777 14.3871 13.4258 14.3432 13.4519L12.0714 14.8071C12.0272 14.8335 11.9726 14.8336 11.9283 14.8073L9.6428 13.4521C9.59833 13.4257 9.57103 13.3768 9.57129 13.324L9.58495 10.5571C9.58521 10.505 9.6123 10.4569 9.65614 10.4308L11.928 9.07554ZM11.9999 9.3724L9.87025 10.6428L9.85743 13.2401L11.9995 14.5103L14.1291 13.2399L14.142 10.6425L11.9999 9.3724Z" fill="white"/>
<path fill-rule="evenodd" clip-rule="evenodd" d="M9.60408 10.4844C9.64348 10.4141 9.73084 10.3899 9.79919 10.4305L12.0848 11.7857C12.1293 11.8121 12.1565 11.861 12.1563 11.9138L12.1426 14.6807C12.1422 14.7618 12.0779 14.8273 11.999 14.8269C11.9201 14.8264 11.8565 14.7603 11.8569 14.6792L11.8702 11.9977L9.6565 10.6851C9.58814 10.6446 9.56467 10.5547 9.60408 10.4844Z" fill="white"/>
<path fill-rule="evenodd" clip-rule="evenodd" d="M14.4094 10.4841C14.449 10.5543 14.4258 10.6442 14.3575 10.6849L12.0856 12.0402C12.0174 12.0809 11.93 12.057 11.8904 11.9868C11.8508 11.9166 11.8741 11.8266 11.9423 11.7859L14.2142 10.4307C14.2824 10.3899 14.3699 10.4139 14.4094 10.4841Z" fill="white"/>
<path d="M16.5717 11.9094L16.558 14.6763L14.2861 16.0315L14.2998 13.2646L16.5717 11.9094Z" fill="#1792FF"/>
<path d="M14.2992 13.2646L14.2856 16.0315L12 14.6763L12.0137 11.9094L14.2992 13.2646Z" fill="#1792FF"/>
<path d="M16.5711 11.9099L14.2993 13.2651L12.0137 11.9099L14.2856 10.5547L16.5711 11.9099Z" fill="white"/>
<path fill-rule="evenodd" clip-rule="evenodd" d="M14.2142 10.4276C14.2584 10.4012 14.3129 10.4011 14.3572 10.4274L16.6428 11.7826C16.6872 11.809 16.7145 11.8579 16.7143 11.9107L16.7006 14.6776C16.7003 14.7297 16.6732 14.7778 16.6294 14.8039L14.3575 16.1592C14.3133 16.1855 14.2588 16.1856 14.2145 16.1594L11.9289 14.8041C11.8845 14.7778 11.8572 14.7289 11.8574 14.6761L11.8711 11.9092C11.8714 11.857 11.8985 11.809 11.9423 11.7828L14.2142 10.4276ZM14.2861 10.7244L12.1564 11.9948L12.1436 14.5922L14.2857 15.8623L16.4153 14.5919L16.4281 11.9946L14.2861 10.7244Z" fill="white"/>
<path fill-rule="evenodd" clip-rule="evenodd" d="M11.8902 11.836C11.9296 11.7657 12.017 11.7415 12.0853 11.7821L14.3709 13.1373C14.4154 13.1637 14.4427 13.2126 14.4424 13.2654L14.4287 16.0323C14.4283 16.1134 14.364 16.1789 14.2851 16.1784C14.2062 16.178 14.1426 16.1119 14.143 16.0308L14.1563 13.3493L11.9426 12.0367C11.8743 11.9961 11.8508 11.9063 11.8902 11.836Z" fill="white"/>
<path fill-rule="evenodd" clip-rule="evenodd" d="M16.6955 11.8357C16.7351 11.9059 16.7119 11.9958 16.6436 12.0365L14.3718 13.3917C14.3035 13.4325 14.2161 13.4086 14.1765 13.3384C14.1369 13.2682 14.1602 13.1782 14.2284 13.1375L16.5003 11.7823C16.5685 11.7415 16.6559 11.7654 16.6955 11.8357Z" fill="white"/>
<path d="M14.2856 7.8541L14.2718 10.621L12 11.9762L12.0137 9.20932L14.2856 7.8541Z" fill="#1792FF"/>
<path d="M12.014 9.20932L12.0004 11.9762L9.71484 10.621L9.72851 7.8541L12.014 9.20932Z" fill="#1792FF"/>
<path d="M14.286 7.85375L12.0141 9.20896L9.72852 7.85375L12.0004 6.49853L14.286 7.85375Z" fill="white"/>
<path fill-rule="evenodd" clip-rule="evenodd" d="M11.928 6.37144C11.9722 6.34507 12.0268 6.34499 12.071 6.37125L14.3566 7.72646C14.4011 7.75283 14.4284 7.80172 14.4281 7.85452L14.4144 10.6214C14.4142 10.6736 14.3871 10.7217 14.3432 10.7478L12.0714 12.103C12.0272 12.1294 11.9726 12.1295 11.9283 12.1032L9.6428 10.748C9.59833 10.7216 9.57103 10.6727 9.57129 10.6199L9.58495 7.85302C9.58521 7.80089 9.6123 7.75281 9.65614 7.72665L11.928 6.37144ZM11.9999 6.66829L9.87025 7.93867L9.85743 10.536L11.9995 11.8062L14.1291 10.5358L14.142 7.93843L11.9999 6.66829Z" fill="white"/>
<path fill-rule="evenodd" clip-rule="evenodd" d="M9.60408 7.78071C9.64348 7.7104 9.73083 7.68626 9.79919 7.72679L12.0848 9.08201C12.1293 9.10838 12.1565 9.15727 12.1563 9.21007L12.1426 11.977C12.1422 12.0581 12.0779 12.1236 11.999 12.1232C11.9201 12.1228 11.8565 12.0566 11.8569 11.9755L11.8702 9.29397L9.6565 7.98141C9.58814 7.94088 9.56467 7.85102 9.60408 7.78071Z" fill="white"/>
<path fill-rule="evenodd" clip-rule="evenodd" d="M14.4094 7.78038C14.449 7.85059 14.4258 7.9405 14.3575 7.98122L12.0856 9.33643C12.0174 9.37715 11.93 9.35324 11.8904 9.28304C11.8508 9.21283 11.8741 9.12291 11.9423 9.0822L14.2142 7.72698C14.2824 7.68627 14.3699 7.71018 14.4094 7.78038Z" fill="white"/>
<path d="M16.5717 9.20573L16.558 11.9727L14.2861 13.3279L14.2998 10.5609L16.5717 9.20573Z" fill="#1792FF"/>
<path d="M14.2992 10.5609L14.2856 13.3279L12 11.9727L12.0137 9.20573L14.2992 10.5609Z" fill="#1792FF"/>
<path d="M16.5711 9.2058L14.2993 10.561L12.0137 9.2058L14.2856 7.85059L16.5711 9.2058Z" fill="white"/>
<path fill-rule="evenodd" clip-rule="evenodd" d="M14.2142 7.72347C14.2584 7.6971 14.3129 7.69703 14.3572 7.72328L16.6428 9.0785C16.6872 9.10487 16.7145 9.15375 16.7143 9.20656L16.7006 11.9735C16.7003 12.0256 16.6732 12.0737 16.6294 12.0998L14.3575 13.4551C14.3133 13.4814 14.2588 13.4815 14.2145 13.4552L11.9289 12.1C11.8845 12.0737 11.8572 12.0248 11.8574 11.972L11.8711 9.20506C11.8714 9.15293 11.8985 9.10484 11.9423 9.07869L14.2142 7.72347ZM14.2861 8.02033L12.1564 9.29071L12.1436 11.8881L14.2857 13.1582L16.4153 11.8878L16.4281 9.29046L14.2861 8.02033Z" fill="white"/>
<path fill-rule="evenodd" clip-rule="evenodd" d="M11.8902 9.13234C11.9296 9.06203 12.017 9.03789 12.0853 9.07842L14.3709 10.4336C14.4154 10.46 14.4427 10.5089 14.4424 10.5617L14.4287 13.3286C14.4283 13.4098 14.364 13.4752 14.2851 13.4748C14.2062 13.4744 14.1426 13.4083 14.143 13.3271L14.1563 10.6456L11.9426 9.33303C11.8743 9.2925 11.8508 9.20265 11.8902 9.13234Z" fill="white"/>
<path fill-rule="evenodd" clip-rule="evenodd" d="M16.6955 9.132C16.7351 9.20221 16.7119 9.29213 16.6436 9.33284L14.3718 10.6881C14.3035 10.7288 14.2161 10.7049 14.1765 10.6347C14.1369 10.5645 14.1602 10.4745 14.2284 10.4338L16.5003 9.07861C16.5685 9.03789 16.6559 9.0618 16.6955 9.132Z" fill="white"/>
<path d="M18.8569 10.6165L18.8432 13.3834L16.5713 14.7386L16.585 11.9717L18.8569 10.6165Z" fill="#1792FF"/>
<path d="M16.5854 11.9717L16.5717 14.7386L14.2861 13.3834L14.2998 10.6165L16.5854 11.9717Z" fill="#1792FF"/>
<path d="M18.8572 10.6166L16.5853 11.9718L14.2998 10.6166L16.5716 9.26134L18.8572 10.6166Z" fill="white"/>
<path fill-rule="evenodd" clip-rule="evenodd" d="M16.4994 9.13422C16.5436 9.10785 16.5981 9.10778 16.6424 9.13403L18.9279 10.4893C18.9724 10.5156 18.9997 10.5645 18.9994 10.6173L18.9857 13.3842C18.9855 13.4364 18.9584 13.4844 18.9145 13.5106L16.6427 14.8658C16.5985 14.8921 16.544 14.8922 16.4997 14.866L14.2141 13.5108C14.1696 13.4844 14.1423 13.4355 14.1426 13.3827L14.1563 10.6158C14.1565 10.5637 14.1836 10.5156 14.2275 10.4894L16.4994 9.13422ZM16.5712 9.43108L14.4416 10.7015L14.4287 13.2988L16.5708 14.5689L18.7004 13.2986L18.7133 10.7012L16.5712 9.43108Z" fill="white"/>
<path fill-rule="evenodd" clip-rule="evenodd" d="M14.1763 10.5431C14.2157 10.4728 14.3031 10.4486 14.3715 10.4892L16.657 11.8444C16.7015 11.8708 16.7288 11.9197 16.7285 11.9725L16.7148 14.7394C16.7144 14.8205 16.6501 14.886 16.5712 14.8856C16.4923 14.8851 16.4287 14.819 16.4291 14.7379L16.4424 12.0564L14.2288 10.7438C14.1604 10.7033 14.1369 10.6134 14.1763 10.5431Z" fill="white"/>
<path fill-rule="evenodd" clip-rule="evenodd" d="M18.9807 10.5428C19.0203 10.613 18.997 10.7029 18.9288 10.7436L16.6569 12.0989C16.5887 12.1396 16.5013 12.1157 16.4617 12.0455C16.4221 11.9753 16.4453 11.8853 16.5136 11.8446L18.7854 10.4894C18.8537 10.4486 18.9411 10.4726 18.9807 10.5428Z" fill="white"/>
<path d="M16.5717 6.50206L16.558 9.26898L14.2861 10.6242L14.2998 7.85728L16.5717 6.50206Z" fill="#1792FF"/>
<path d="M14.2992 7.85728L14.2856 10.6242L12 9.26898L12.0137 6.50206L14.2992 7.85728Z" fill="#1792FF"/>
<path d="M16.5711 6.50216L14.2993 7.85738L12.0137 6.50216L14.2856 5.14696L16.5711 6.50216Z" fill="white"/>
<path fill-rule="evenodd" clip-rule="evenodd" d="M14.2142 5.01983C14.2584 4.99346 14.3129 4.99339 14.3572 5.01964L16.6428 6.37485C16.6872 6.40122 16.7145 6.4501 16.7143 6.5029L16.7006 9.26982C16.7003 9.32195 16.6732 9.37003 16.6294 9.39619L14.3575 10.7514C14.3133 10.7778 14.2588 10.7778 14.2145 10.7516L11.9289 9.39638C11.8845 9.37001 11.8572 9.32112 11.8574 9.26832L11.8711 6.5014C11.8714 6.44928 11.8985 6.40119 11.9423 6.37504L14.2142 5.01983ZM14.2861 5.31669L12.1564 6.58705L12.1436 9.18441L14.2857 10.4545L16.4153 9.18417L16.4281 6.58681L14.2861 5.31669Z" fill="white"/>
<path fill-rule="evenodd" clip-rule="evenodd" d="M11.8902 6.42869C11.9296 6.35838 12.017 6.33424 12.0853 6.37477L14.3709 7.72999C14.4154 7.75636 14.4427 7.80525 14.4424 7.85805L14.4287 10.625C14.4283 10.7061 14.364 10.7716 14.2851 10.7712C14.2062 10.7707 14.1426 10.7046 14.143 10.6235L14.1563 7.94195L11.9426 6.62939C11.8743 6.58886 11.8508 6.499 11.8902 6.42869Z" fill="white"/>
<path fill-rule="evenodd" clip-rule="evenodd" d="M16.6955 6.42836C16.7351 6.49857 16.7119 6.58848 16.6436 6.6292L14.3718 7.98441C14.3035 8.02513 14.2161 8.00122 14.1765 7.93102C14.1369 7.86081 14.1602 7.77089 14.2284 7.73018L16.5003 6.37496C16.5685 6.33425 16.6559 6.35816 16.6955 6.42836Z" fill="white"/>
<path d="M12.0004 11.9685L11.9867 14.7355L9.71484 16.0907L9.72851 13.3238L12.0004 11.9685Z" fill="#1792FF"/>
<path d="M9.72696 13.3238L9.7133 16.0907L7.42773 14.7355L7.44142 11.9685L9.72696 13.3238Z" fill="#1792FF"/>
<path d="M11.9998 11.9686L9.72793 13.3238L7.44238 11.9686L9.71426 10.6134L11.9998 11.9686Z" fill="white"/>
<path fill-rule="evenodd" clip-rule="evenodd" d="M9.64192 10.4863C9.68612 10.4599 9.74065 10.4598 9.78492 10.4861L12.0705 11.8413C12.115 11.8676 12.1423 11.9165 12.142 11.9693L12.1283 14.7363C12.128 14.7884 12.1009 14.8365 12.0571 14.8626L9.78525 16.2178C9.74104 16.2442 9.68651 16.2443 9.64224 16.218L7.35667 14.8628C7.3122 14.8365 7.2849 14.7876 7.28516 14.7348L7.29884 11.9678C7.2991 11.9157 7.32619 11.8676 7.37003 11.8414L9.64192 10.4863ZM9.7138 10.7831L7.58414 12.0535L7.57129 14.6509L9.71337 15.921L11.843 14.6506L11.8559 12.0532L9.7138 10.7831Z" fill="white"/>
<path fill-rule="evenodd" clip-rule="evenodd" d="M7.31794 11.8951C7.35735 11.8248 7.44471 11.8007 7.51306 11.8412L9.7986 13.1965C9.84307 13.2229 9.87037 13.2717 9.87011 13.3245L9.85645 16.0914C9.85605 16.1726 9.79176 16.238 9.71287 16.2376C9.63397 16.2372 9.57034 16.1711 9.57074 16.0899L9.58398 13.4084L7.37036 12.0958C7.30201 12.0553 7.27854 11.9654 7.31794 11.8951Z" fill="white"/>
<path fill-rule="evenodd" clip-rule="evenodd" d="M12.1233 11.8948C12.1629 11.965 12.1396 12.0549 12.0714 12.0956L9.79951 13.4509C9.73126 13.4916 9.64385 13.4677 9.60426 13.3975C9.56468 13.3273 9.58792 13.2374 9.65617 13.1967L11.9281 11.8414C11.9963 11.8007 12.0837 11.8246 12.1233 11.8948Z" fill="white"/>
<path d="M14.2856 13.3201L14.2718 16.0871L12 17.4423L12.0137 14.6754L14.2856 13.3201Z" fill="#1792FF"/>
<path d="M12.014 14.6754L12.0004 17.4423L9.71484 16.0871L9.72851 13.3201L12.014 14.6754Z" fill="#1792FF"/>
<path d="M14.286 13.3202L12.0141 14.6754L9.72852 13.3202L12.0004 11.965L14.286 13.3202Z" fill="white"/>
<path fill-rule="evenodd" clip-rule="evenodd" d="M11.928 11.8379C11.9722 11.8115 12.0268 11.8114 12.071 11.8377L14.3566 13.1929C14.4011 13.2192 14.4284 13.2681 14.4281 13.3209L14.4144 16.0879C14.4142 16.14 14.3871 16.1881 14.3432 16.2142L12.0714 17.5694C12.0272 17.5958 11.9726 17.5959 11.9283 17.5696L9.6428 16.2144C9.59833 16.1881 9.57103 16.1392 9.57129 16.0864L9.58495 13.3194C9.58521 13.2673 9.6123 13.2192 9.65614 13.193L11.928 11.8379ZM11.9999 12.1347L9.87025 13.4051L9.85743 16.0025L11.9995 17.2726L14.1291 16.0022L14.142 13.4048L11.9999 12.1347Z" fill="white"/>
<path fill-rule="evenodd" clip-rule="evenodd" d="M9.60408 13.2468C9.64348 13.1764 9.73084 13.1523 9.79919 13.1928L12.0848 14.5481C12.1293 14.5745 12.1565 14.6233 12.1563 14.6761L12.1426 17.443C12.1422 17.5242 12.0779 17.5896 11.999 17.5892C11.9201 17.5888 11.8565 17.5227 11.8569 17.4415L11.8702 14.7601L9.6565 13.4474C9.58814 13.4069 9.56467 13.3171 9.60408 13.2468Z" fill="white"/>
<path fill-rule="evenodd" clip-rule="evenodd" d="M14.4094 13.2464C14.449 13.3166 14.4258 13.4065 14.3575 13.4473L12.0856 14.8025C12.0174 14.8432 11.93 14.8193 11.8904 14.7491C11.8508 14.6789 11.8741 14.589 11.9423 14.5483L14.2142 13.193C14.2824 13.1523 14.3699 13.1762 14.4094 13.2464Z" fill="white"/>
<path d="M16.5717 14.7309L16.558 17.4978L14.2861 18.853L14.2998 16.0861L16.5717 14.7309Z" fill="#1792FF"/>
<path d="M14.2992 16.0861L14.2856 18.853L12 17.4978L12.0137 14.7309L14.2992 16.0861Z" fill="#1792FF"/>
<path d="M16.5711 14.7309L14.2993 16.0862L12.0137 14.7309L14.2856 13.3757L16.5711 14.7309Z" fill="white"/>
<path fill-rule="evenodd" clip-rule="evenodd" d="M14.2142 13.2486C14.2584 13.2223 14.3129 13.2222 14.3572 13.2484L16.6428 14.6036C16.6872 14.63 16.7145 14.6789 16.7143 14.7317L16.7006 17.4986C16.7003 17.5508 16.6732 17.5988 16.6294 17.625L14.3575 18.9802C14.3133 19.0065 14.2588 19.0066 14.2145 18.9804L11.9289 17.6252C11.8845 17.5988 11.8572 17.5499 11.8574 17.4971L11.8711 14.7302C11.8714 14.678 11.8985 14.63 11.9423 14.6038L14.2142 13.2486ZM14.2861 13.5455L12.1564 14.8158L12.1436 17.4132L14.2857 18.6833L16.4153 17.413L16.4281 14.8156L14.2861 13.5455Z" fill="white"/>
<path fill-rule="evenodd" clip-rule="evenodd" d="M11.8902 14.6575C11.9296 14.5872 12.017 14.563 12.0853 14.6036L14.3709 15.9588C14.4154 15.9852 14.4427 16.0341 14.4424 16.0869L14.4287 18.8538C14.4283 18.9349 14.364 19.0004 14.2851 19C14.2062 18.9996 14.1426 18.9334 14.143 18.8523L14.1563 16.1708L11.9426 14.8582C11.8743 14.8177 11.8508 14.7278 11.8902 14.6575Z" fill="white"/>
<path fill-rule="evenodd" clip-rule="evenodd" d="M16.6955 14.6572C16.7351 14.7274 16.7119 14.8173 16.6436 14.858L14.3718 16.2133C14.3035 16.254 14.2161 16.2301 14.1765 16.1599C14.1369 16.0897 14.1602 15.9997 14.2284 15.959L16.5003 14.6038C16.5685 14.5631 16.6559 14.587 16.6955 14.6572Z" fill="white"/>
<path d="M12.0004 9.26441L11.9867 12.0314L9.71484 13.3865L9.72851 10.6196L12.0004 9.26441Z" fill="#1792FF"/>
<path d="M9.72696 10.6196L9.7133 13.3865L7.42773 12.0314L7.44142 9.26441L9.72696 10.6196Z" fill="#1792FF"/>
<path d="M11.9998 9.2645L9.72793 10.6197L7.44238 9.2645L9.71426 7.90928L11.9998 9.2645Z" fill="white"/>
<path fill-rule="evenodd" clip-rule="evenodd" d="M9.64191 7.78215C9.68612 7.75578 9.74065 7.75571 9.78493 7.78196L12.0705 9.13718C12.115 9.16355 12.1423 9.21244 12.142 9.26524L12.1283 12.0322C12.128 12.0843 12.1009 12.1324 12.0571 12.1585L9.78525 13.5137C9.74104 13.5401 9.68651 13.5402 9.64223 13.5139L7.35667 12.1587C7.3122 12.1323 7.2849 12.0835 7.28516 12.0307L7.29884 9.26374C7.2991 9.21161 7.32619 9.16352 7.37003 9.13737L9.64191 7.78215ZM9.7138 8.07901L7.58414 9.34939L7.57129 11.9467L9.71337 13.2169L11.843 11.9465L11.8559 9.34914L9.7138 8.07901Z" fill="white"/>
<path fill-rule="evenodd" clip-rule="evenodd" d="M7.31794 9.19102C7.35735 9.12071 7.4447 9.09657 7.51306 9.1371L9.7986 10.4923C9.84307 10.5187 9.87037 10.5676 9.87011 10.6204L9.85645 13.3873C9.85605 13.4684 9.79176 13.5339 9.71287 13.5335C9.63397 13.5331 9.57034 13.4669 9.57074 13.3858L9.58398 10.7043L7.37036 9.39171C7.30201 9.35118 7.27854 9.26133 7.31794 9.19102Z" fill="white"/>
<path fill-rule="evenodd" clip-rule="evenodd" d="M12.1233 9.19069C12.1629 9.26089 12.1396 9.35081 12.0714 9.39152L9.79951 10.7467C9.73126 10.7875 9.64384 10.7635 9.60426 10.6933C9.56468 10.6231 9.58792 10.5332 9.65618 10.4925L11.9281 9.13729C11.9963 9.09658 12.0837 9.12048 12.1233 9.19069Z" fill="white"/>
<path d="M14.2856 10.6165L14.2718 13.3834L12 14.7386L12.0137 11.9717L14.2856 10.6165Z" fill="#1792FF"/>
<path d="M12.014 11.9717L12.0004 14.7386L9.71484 13.3834L9.72851 10.6165L12.014 11.9717Z" fill="#1792FF"/>
<path d="M14.286 10.6166L12.0141 11.9718L9.72852 10.6166L12.0004 9.26134L14.286 10.6166Z" fill="white"/>
<path fill-rule="evenodd" clip-rule="evenodd" d="M11.928 9.13422C11.9722 9.10785 12.0268 9.10778 12.071 9.13403L14.3566 10.4892C14.4011 10.5156 14.4284 10.5645 14.4281 10.6173L14.4144 13.3842C14.4142 13.4364 14.3871 13.4844 14.3432 13.5106L12.0714 14.8658C12.0272 14.8921 11.9726 14.8922 11.9283 14.866L9.6428 13.5108C9.59833 13.4844 9.57103 13.4355 9.57129 13.3827L9.58495 10.6158C9.58521 10.5637 9.6123 10.5156 9.65614 10.4894L11.928 9.13422ZM11.9999 9.43108L9.87025 10.7015L9.85743 13.2988L11.9995 14.5689L14.1291 13.2986L14.142 10.7012L11.9999 9.43108Z" fill="white"/>
<path fill-rule="evenodd" clip-rule="evenodd" d="M9.60408 10.5431C9.64348 10.4728 9.73084 10.4486 9.79919 10.4892L12.0848 11.8444C12.1293 11.8708 12.1565 11.9197 12.1563 11.9725L12.1426 14.7394C12.1422 14.8205 12.0779 14.886 11.999 14.8856C11.9201 14.8851 11.8565 14.819 11.8569 14.7379L11.8702 12.0564L9.6565 10.7438C9.58814 10.7033 9.56467 10.6134 9.60408 10.5431Z" fill="white"/>
<path fill-rule="evenodd" clip-rule="evenodd" d="M14.4094 10.5428C14.449 10.613 14.4258 10.7029 14.3575 10.7436L12.0856 12.0989C12.0174 12.1396 11.93 12.1157 11.8904 12.0455C11.8508 11.9753 11.8741 11.8853 11.9423 11.8446L14.2142 10.4894C14.2824 10.4486 14.3699 10.4726 14.4094 10.5428Z" fill="white"/>
<path d="M16.5717 12.0272L16.558 14.7941L14.2861 16.1493L14.2998 13.3825L16.5717 12.0272Z" fill="#1792FF"/>
<path d="M14.2992 13.3825L14.2856 16.1493L12 14.7941L12.0137 12.0272L14.2992 13.3825Z" fill="#1792FF"/>
<path d="M16.5711 12.0273L14.2993 13.3825L12.0137 12.0273L14.2856 10.6721L16.5711 12.0273Z" fill="white"/>
<path fill-rule="evenodd" clip-rule="evenodd" d="M14.2142 10.545C14.2584 10.5186 14.3129 10.5185 14.3572 10.5448L16.6428 11.9C16.6872 11.9263 16.7145 11.9752 16.7143 12.028L16.7006 14.795C16.7003 14.8471 16.6732 14.8952 16.6294 14.9214L14.3575 16.2765C14.3133 16.3029 14.2588 16.303 14.2145 16.2767L11.9289 14.9216C11.8845 14.8952 11.8572 14.8463 11.8574 14.7935L11.8711 12.0265C11.8714 11.9744 11.8985 11.9263 11.9423 11.9002L14.2142 10.545ZM14.2861 10.8418L12.1564 12.1122L12.1436 14.7096L14.2857 15.9797L16.4153 14.7093L16.4281 12.1119L14.2861 10.8418Z" fill="white"/>
<path fill-rule="evenodd" clip-rule="evenodd" d="M11.8902 11.9538C11.9296 11.8835 12.017 11.8594 12.0853 11.8999L14.3709 13.2552C14.4154 13.2816 14.4427 13.3304 14.4424 13.3832L14.4287 16.1501C14.4283 16.2313 14.364 16.2967 14.2851 16.2963C14.2062 16.2959 14.1426 16.2298 14.143 16.1486L14.1563 13.4671L11.9426 12.1545C11.8743 12.114 11.8508 12.0241 11.8902 11.9538Z" fill="white"/>
<path fill-rule="evenodd" clip-rule="evenodd" d="M16.6955 11.9535C16.7351 12.0237 16.7119 12.1136 16.6436 12.1543L14.3718 13.5096C14.3035 13.5503 14.2161 13.5264 14.1765 13.4562C14.1369 13.386 14.1602 13.2961 14.2284 13.2554L16.5003 11.9001C16.5685 11.8594 16.6559 11.8833 16.6955 11.9535Z" fill="white"/>
<path d="M12.0004 6.56076L11.9867 9.32768L9.71484 10.6829L9.72851 7.91598L12.0004 6.56076Z" fill="#1792FF"/>
<path d="M9.72696 7.91598L9.7133 10.6829L7.42773 9.32768L7.44142 6.56076L9.72696 7.91598Z" fill="#1792FF"/>
<path d="M11.9998 6.56085L9.72793 7.91606L7.44238 6.56085L9.71426 5.20564L11.9998 6.56085Z" fill="white"/>
<path fill-rule="evenodd" clip-rule="evenodd" d="M9.64191 5.07851C9.68612 5.05214 9.74065 5.05207 9.78493 5.07832L12.0705 6.43353C12.115 6.4599 12.1423 6.50879 12.142 6.56159L12.1283 9.32851C12.128 9.38064 12.1009 9.42872 12.0571 9.45487L9.78525 10.8101C9.74104 10.8365 9.68651 10.8365 9.64224 10.8103L7.35667 9.45506C7.3122 9.42869 7.2849 9.37981 7.28516 9.32701L7.29884 6.56009C7.2991 6.50796 7.32619 6.45987 7.37003 6.43372L9.64191 5.07851ZM9.7138 5.37537L7.58414 6.64574L7.57129 9.2431L9.71337 10.5132L11.843 9.24286L11.8559 6.64549L9.7138 5.37537Z" fill="white"/>
<path fill-rule="evenodd" clip-rule="evenodd" d="M7.31794 6.48737C7.35735 6.41706 7.4447 6.39292 7.51306 6.43345L9.7986 7.78867C9.84307 7.81504 9.87037 7.86393 9.87011 7.91673L9.85645 10.6836C9.85605 10.7648 9.79176 10.8303 9.71287 10.8298C9.63397 10.8294 9.57034 10.7633 9.57074 10.6821L9.58398 8.00064L7.37036 6.68807C7.30201 6.64754 7.27854 6.55768 7.31794 6.48737Z" fill="white"/>
<path fill-rule="evenodd" clip-rule="evenodd" d="M12.1233 6.48704C12.1629 6.55725 12.1396 6.64717 12.0714 6.68788L9.79951 8.0431C9.73126 8.08381 9.64384 8.0599 9.60426 7.9897C9.56468 7.91949 9.58792 7.82958 9.65618 7.78886L11.9281 6.43364C11.9963 6.39293 12.0837 6.41684 12.1233 6.48704Z" fill="white"/>
<path d="M14.2856 7.91282L14.2718 10.6797L12 12.0349L12.0137 9.26803L14.2856 7.91282Z" fill="#1792FF"/>
<path d="M12.014 9.26803L12.0004 12.0349L9.71484 10.6797L9.72851 7.91282L12.014 9.26803Z" fill="#1792FF"/>
<path d="M14.286 7.91291L12.0141 9.26812L9.72852 7.91291L12.0004 6.55769L14.286 7.91291Z" fill="white"/>
<path fill-rule="evenodd" clip-rule="evenodd" d="M11.928 6.43058C11.9722 6.40421 12.0268 6.40414 12.071 6.43039L14.3566 7.78561C14.4011 7.81198 14.4284 7.86086 14.4281 7.91366L14.4144 10.6806C14.4142 10.7327 14.3871 10.7808 14.3432 10.8069L12.0714 12.1622C12.0272 12.1885 11.9726 12.1886 11.9283 12.1624L9.6428 10.8071C9.59833 10.7808 9.57103 10.7319 9.57129 10.6791L9.58495 7.91217C9.58521 7.86004 9.6123 7.81195 9.65614 7.7858L11.928 6.43058ZM11.9999 6.72744L9.87025 7.99781L9.85743 10.5952L11.9995 11.8653L14.1291 10.5949L14.142 7.99757L11.9999 6.72744Z" fill="white"/>
<path fill-rule="evenodd" clip-rule="evenodd" d="M9.60408 7.83943C9.64348 7.76912 9.73083 7.74497 9.79919 7.7855L12.0848 9.14072C12.1293 9.16709 12.1565 9.21598 12.1563 9.26878L12.1426 12.0357C12.1422 12.1168 12.0779 12.1823 11.999 12.1819C11.9201 12.1815 11.8565 12.1154 11.8569 12.0342L11.8702 9.35269L9.6565 8.04012C9.58814 7.99959 9.56467 7.90974 9.60408 7.83943Z" fill="white"/>
<path fill-rule="evenodd" clip-rule="evenodd" d="M14.4094 7.83909C14.449 7.9093 14.4258 7.99922 14.3575 8.03993L12.0856 9.39515C12.0174 9.43586 11.93 9.41195 11.8904 9.34175C11.8508 9.27154 11.8741 9.18163 11.9423 9.14091L14.2142 7.7857C14.2824 7.74498 14.3699 7.76889 14.4094 7.83909Z" fill="white"/>
<path d="M16.5717 9.32357L16.558 12.0905L14.2861 13.4457L14.2998 10.6788L16.5717 9.32357Z" fill="#1792FF"/>
<path d="M14.2992 10.6788L14.2856 13.4457L12 12.0905L12.0137 9.32357L14.2992 10.6788Z" fill="#1792FF"/>
<path d="M16.5711 9.32364L14.2993 10.6789L12.0137 9.32364L14.2856 7.96842L16.5711 9.32364Z" fill="white"/>
<path fill-rule="evenodd" clip-rule="evenodd" d="M14.2142 7.84131C14.2584 7.81494 14.3129 7.81487 14.3572 7.84112L16.6428 9.19634C16.6872 9.22271 16.7145 9.27159 16.7143 9.3244L16.7006 12.0913C16.7003 12.1434 16.6732 12.1915 16.6294 12.2177L14.3575 13.5729C14.3133 13.5992 14.2588 13.5993 14.2145 13.573L11.9289 12.2179C11.8845 12.1915 11.8572 12.1426 11.8574 12.0898L11.8711 9.3229C11.8714 9.27077 11.8985 9.22268 11.9423 9.19653L14.2142 7.84131ZM14.2861 8.13817L12.1564 9.40855L12.1436 12.0059L14.2857 13.276L16.4153 12.0057L16.4281 9.4083L14.2861 8.13817Z" fill="white"/>
<path fill-rule="evenodd" clip-rule="evenodd" d="M11.8902 9.25018C11.9296 9.17987 12.017 9.15573 12.0853 9.19626L14.3709 10.5515C14.4154 10.5778 14.4427 10.6267 14.4424 10.6795L14.4287 13.4464C14.4283 13.5276 14.364 13.5931 14.2851 13.5926C14.2062 13.5922 14.1426 13.5261 14.143 13.4449L14.1563 10.7634L11.9426 9.45087C11.8743 9.41034 11.8508 9.32049 11.8902 9.25018Z" fill="white"/>
<path fill-rule="evenodd" clip-rule="evenodd" d="M16.6955 9.24984C16.7351 9.32005 16.7119 9.40997 16.6436 9.45068L14.3718 10.8059C14.3035 10.8466 14.2161 10.8227 14.1765 10.7525C14.1369 10.6823 14.1602 10.5924 14.2284 10.5517L16.5003 9.19645C16.5685 9.15573 16.6559 9.17964 16.6955 9.24984Z" fill="white"/>
<path d="M12.0004 14.7309L11.9867 17.4978L9.71484 18.853L9.72851 16.0861L12.0004 14.7309Z" fill="#1792FF"/>
<path d="M9.72696 16.0861L9.7133 18.853L7.42773 17.4978L7.44142 14.7309L9.72696 16.0861Z" fill="#1792FF"/>
<path d="M11.9998 14.7309L9.72793 16.0862L7.44238 14.7309L9.71426 13.3757L11.9998 14.7309Z" fill="white"/>
<path fill-rule="evenodd" clip-rule="evenodd" d="M9.64192 13.2486C9.68612 13.2223 9.74065 13.2222 9.78492 13.2484L12.0705 14.6036C12.115 14.63 12.1423 14.6789 12.142 14.7317L12.1283 17.4986C12.128 17.5508 12.1009 17.5989 12.0571 17.625L9.78525 18.9802C9.74104 19.0065 9.68651 19.0066 9.64224 18.9804L7.35667 17.6252C7.3122 17.5988 7.2849 17.5499 7.28516 17.4971L7.29884 14.7302C7.2991 14.678 7.32619 14.63 7.37003 14.6038L9.64192 13.2486ZM9.7138 13.5455L7.58414 14.8158L7.57129 17.4132L9.71337 18.6833L11.843 17.413L11.8559 14.8156L9.7138 13.5455Z" fill="white"/>
<path fill-rule="evenodd" clip-rule="evenodd" d="M7.31794 14.6575C7.35735 14.5872 7.44471 14.563 7.51306 14.6036L9.7986 15.9588C9.84307 15.9852 9.87037 16.0341 9.87011 16.0869L9.85645 18.8538C9.85605 18.9349 9.79176 19.0004 9.71287 19C9.63397 18.9996 9.57034 18.9334 9.57074 18.8523L9.58398 16.1708L7.37036 14.8582C7.30201 14.8177 7.27854 14.7278 7.31794 14.6575Z" fill="white"/>
<path fill-rule="evenodd" clip-rule="evenodd" d="M12.1233 14.6572C12.1629 14.7274 12.1396 14.8173 12.0714 14.858L9.79951 16.2133C9.73126 16.254 9.64385 16.2301 9.60426 16.1599C9.56468 16.0897 9.58792 15.9997 9.65617 15.959L11.9281 14.6038C11.9963 14.5631 12.0837 14.587 12.1233 14.6572Z" fill="white"/>
<path d="M9.7133 10.6752L9.69959 13.4421L7.42773 14.7973L7.44142 12.0304L9.7133 10.6752Z" fill="#1792FF"/>
<path d="M7.44183 12.0304L7.42814 14.7973L5.14258 13.4421L5.15626 10.6752L7.44183 12.0304Z" fill="#1792FF"/>
<path d="M9.71369 10.6753L7.44181 12.0305L5.15625 10.6753L7.42813 9.32003L9.71369 10.6753Z" fill="white"/>
<path fill-rule="evenodd" clip-rule="evenodd" d="M7.35675 9.19292C7.40096 9.16655 7.45549 9.16648 7.49976 9.19273L9.78533 10.5479C9.8298 10.5743 9.8571 10.6232 9.85684 10.676L9.84318 13.4429C9.84292 13.495 9.81583 13.5431 9.77198 13.5693L7.50008 14.9245C7.45588 14.9508 7.40135 14.9509 7.35707 14.9247L5.07151 13.5695C5.02704 13.5431 4.99974 13.4942 5 13.4414L5.01369 10.6745C5.01395 10.6224 5.04103 10.5743 5.08488 10.5481L7.35675 9.19292ZM7.42863 9.48978L5.29899 10.7602L5.28614 13.3575L7.4282 14.6276L9.55788 13.3573L9.5707 10.7599L7.42863 9.48978Z" fill="white"/>
<path fill-rule="evenodd" clip-rule="evenodd" d="M5.03279 10.6018C5.07219 10.5315 5.15955 10.5073 5.2279 10.5479L7.51346 11.9031C7.55793 11.9295 7.58523 11.9784 7.58497 12.0312L7.57129 14.7981C7.57089 14.8792 7.5066 14.9447 7.4277 14.9442C7.34881 14.9438 7.28517 14.8777 7.28557 14.7966L7.29883 12.1151L5.08521 10.8025C5.01685 10.7619 4.99338 10.6721 5.03279 10.6018Z" fill="white"/>
<path fill-rule="evenodd" clip-rule="evenodd" d="M9.83717 10.6015C9.87675 10.6717 9.85351 10.7616 9.78526 10.8023L7.51338 12.1576C7.44513 12.1983 7.35771 12.1744 7.31813 12.1042C7.27855 12.034 7.30179 11.944 7.37004 11.9033L9.64192 10.5481C9.71017 10.5073 9.79759 10.5312 9.83717 10.6015Z" fill="white"/>
<path d="M12.0004 12.0272L11.9867 14.7941L9.71484 16.1493L9.72851 13.3825L12.0004 12.0272Z" fill="#1792FF"/>
<path d="M9.72696 13.3825L9.7133 16.1493L7.42773 14.7941L7.44142 12.0272L9.72696 13.3825Z" fill="#1792FF"/>
<path d="M11.9998 12.0273L9.72793 13.3825L7.44238 12.0273L9.71426 10.6721L11.9998 12.0273Z" fill="white"/>
<path fill-rule="evenodd" clip-rule="evenodd" d="M9.64192 10.545C9.68612 10.5186 9.74065 10.5185 9.78492 10.5448L12.0705 11.9C12.115 11.9263 12.1423 11.9752 12.142 12.028L12.1283 14.795C12.128 14.8471 12.1009 14.8952 12.0571 14.9214L9.78525 16.2765C9.74104 16.3029 9.68651 16.303 9.64224 16.2767L7.35667 14.9216C7.3122 14.8952 7.2849 14.8463 7.28516 14.7935L7.29884 12.0265C7.2991 11.9744 7.32619 11.9263 7.37003 11.9002L9.64192 10.545ZM9.7138 10.8418L7.58414 12.1122L7.57129 14.7096L9.71337 15.9797L11.843 14.7093L11.8559 12.1119L9.7138 10.8418Z" fill="white"/>
<path fill-rule="evenodd" clip-rule="evenodd" d="M7.31794 11.9538C7.35735 11.8835 7.44471 11.8594 7.51306 11.8999L9.7986 13.2552C9.84307 13.2816 9.87037 13.3304 9.87011 13.3832L9.85645 16.1501C9.85605 16.2313 9.79176 16.2967 9.71287 16.2963C9.63397 16.2959 9.57034 16.2298 9.57074 16.1486L9.58398 13.4671L7.37036 12.1545C7.30201 12.114 7.27854 12.0241 7.31794 11.9538Z" fill="white"/>
<path fill-rule="evenodd" clip-rule="evenodd" d="M12.1233 11.9535C12.1629 12.0237 12.1396 12.1136 12.0714 12.1543L9.79951 13.5096C9.73126 13.5503 9.64385 13.5264 9.60426 13.4562C9.56468 13.386 9.58792 13.2961 9.65617 13.2554L11.9281 11.9001C11.9963 11.8594 12.0837 11.8833 12.1233 11.9535Z" fill="white"/>
<path d="M14.2856 13.438L14.2718 16.2049L12 17.5601L12.0137 14.7932L14.2856 13.438Z" fill="#1792FF"/>
<path d="M12.014 14.7932L12.0004 17.5601L9.71484 16.2049L9.72851 13.438L12.014 14.7932Z" fill="#1792FF"/>
<path d="M14.286 13.438L12.0141 14.7933L9.72852 13.438L12.0004 12.0828L14.286 13.438Z" fill="white"/>
<path fill-rule="evenodd" clip-rule="evenodd" d="M11.928 11.9557C11.9722 11.9293 12.0268 11.9292 12.071 11.9555L14.3566 13.3107C14.4011 13.3371 14.4284 13.386 14.4281 13.4388L14.4144 16.2057C14.4142 16.2578 14.3871 16.3059 14.3432 16.332L12.0714 17.6873C12.0272 17.7136 11.9726 17.7137 11.9283 17.6874L9.6428 16.3322C9.59833 16.3059 9.57103 16.257 9.57129 16.2042L9.58495 13.4373C9.58521 13.3851 9.6123 13.337 9.65614 13.3109L11.928 11.9557ZM11.9999 12.2525L9.87025 13.5229L9.85743 16.1203L11.9995 17.3904L14.1291 16.12L14.142 13.5227L11.9999 12.2525Z" fill="white"/>
<path fill-rule="evenodd" clip-rule="evenodd" d="M9.60408 13.3646C9.64348 13.2943 9.73083 13.2701 9.79919 13.3107L12.0848 14.6659C12.1293 14.6922 12.1565 14.7411 12.1563 14.7939L12.1426 17.5608C12.1422 17.642 12.0779 17.7074 11.999 17.707C11.9201 17.7066 11.8565 17.6405 11.8569 17.5593L11.8702 14.8778L9.6565 13.5653C9.58814 13.5247 9.56467 13.4349 9.60408 13.3646Z" fill="white"/>
<path fill-rule="evenodd" clip-rule="evenodd" d="M14.4094 13.3642C14.449 13.4344 14.4258 13.5244 14.3575 13.5651L12.0856 14.9203C12.0174 14.961 11.93 14.9371 11.8904 14.8669C11.8508 14.7967 11.8741 14.7068 11.9423 14.6661L14.2142 13.3108C14.2824 13.2701 14.3699 13.294 14.4094 13.3642Z" fill="white"/>
<path d="M12.0004 9.32357L11.9867 12.0905L9.71484 13.4457L9.72851 10.6788L12.0004 9.32357Z" fill="#1792FF"/>
<path d="M9.72696 10.6788L9.7133 13.4457L7.42773 12.0905L7.44142 9.32357L9.72696 10.6788Z" fill="#1792FF"/>
<path d="M11.9998 9.32364L9.72793 10.6789L7.44238 9.32364L9.71426 7.96842L11.9998 9.32364Z" fill="white"/>
<path fill-rule="evenodd" clip-rule="evenodd" d="M9.64191 7.84131C9.68612 7.81494 9.74065 7.81487 9.78493 7.84112L12.0705 9.19634C12.115 9.22271 12.1423 9.2716 12.142 9.3244L12.1283 12.0913C12.128 12.1434 12.1009 12.1915 12.0571 12.2177L9.78525 13.5729C9.74104 13.5992 9.68651 13.5993 9.64224 13.573L7.35667 12.2179C7.3122 12.1915 7.2849 12.1426 7.28516 12.0898L7.29884 9.3229C7.2991 9.27077 7.32619 9.22268 7.37003 9.19653L9.64191 7.84131ZM9.7138 8.13817L7.58414 9.40855L7.57129 12.0059L9.71337 13.276L11.843 12.0057L11.8559 9.4083L9.7138 8.13817Z" fill="white"/>
<path fill-rule="evenodd" clip-rule="evenodd" d="M7.31794 9.25018C7.35735 9.17987 7.4447 9.15573 7.51306 9.19626L9.7986 10.5515C9.84307 10.5778 9.87037 10.6267 9.87011 10.6795L9.85645 13.4464C9.85605 13.5276 9.79176 13.5931 9.71287 13.5926C9.63397 13.5922 9.57034 13.5261 9.57074 13.445L9.58398 10.7634L7.37036 9.45087C7.30201 9.41034 7.27854 9.32049 7.31794 9.25018Z" fill="white"/>
<path fill-rule="evenodd" clip-rule="evenodd" d="M12.1233 9.24985C12.1629 9.32005 12.1396 9.40997 12.0714 9.45068L9.79951 10.8059C9.73126 10.8466 9.64384 10.8227 9.60426 10.7525C9.56468 10.6823 9.58792 10.5924 9.65618 10.5517L11.9281 9.19645C11.9963 9.15573 12.0837 9.17964 12.1233 9.24985Z" fill="white"/>
</svg>
