<svg width="24" height="24" viewBox="0 0 24 24" fill="none" xmlns="http://www.w3.org/2000/svg">
<rect width="24" height="24" rx="7" fill="white"/>
<path d="M10.5511 5.20535C8.8194 5.60297 7.25678 6.69119 6.2755 8.17703C5.78074 8.92204 5.48388 9.62938 5.28185 10.546C5.14167 11.1571 5.09632 12.2327 5.17878 12.894C5.38905 14.6226 6.23839 16.1587 7.61136 17.3223C8.32876 17.9291 9.13687 18.377 9.13687 18.1677C9.13687 18.1384 9.05029 18.0338 8.94721 17.9291C8.24218 17.2385 7.87111 16.0289 8.01953 14.9031C8.21744 13.4047 8.82352 12.4043 10.0068 11.6258C10.2295 11.4794 10.4315 11.358 10.4562 11.358C10.5428 11.358 10.4892 11.1822 10.2748 10.7636C9.86252 9.97259 9.71409 9.42848 9.71409 8.70858C9.71409 7.60362 10.1759 6.42332 10.885 5.70761C11.0912 5.50252 11.1159 5.46066 11.1159 5.29743C11.1159 5.1342 11.1077 5.12164 11.0046 5.12583C10.9386 5.12583 10.7366 5.1635 10.5511 5.20535Z" fill="#55DDFF"/>
<path d="M14.7436 5.64483C14.7436 5.67831 14.8054 5.7955 14.8837 5.90433C15.2507 6.43169 15.4445 7.00092 15.4733 7.65385C15.5104 8.4449 15.3002 9.13131 14.9126 9.47871C14.6281 9.73402 14.3807 9.74239 14.0262 9.51638C13.7747 9.35314 13.7458 9.23595 13.9148 9.01831C14.1993 8.65417 14.3725 8.08495 14.3725 7.49899C14.3725 6.89209 14.2571 6.55307 13.9437 6.26009C13.6056 5.94618 13.2634 5.8541 12.8057 5.96292C12.3398 6.06756 11.9028 6.574 11.6678 7.28134C11.5482 7.64548 11.4452 8.2733 11.4452 8.63743C11.4493 9.32385 11.6513 10.1316 11.944 10.6255C12.109 10.9059 12.5171 11.3663 12.7604 11.5463C12.8511 11.6133 12.9294 11.6844 12.9294 11.697C12.9294 11.7137 12.8429 11.7556 12.7357 11.7975C11.944 12.0946 11.1483 12.9861 10.7937 13.9697C10.567 14.5975 10.4845 15.1081 10.5134 15.6941C10.5463 16.414 10.6742 16.753 11.0782 17.1967C11.3957 17.5483 11.9976 17.7073 12.7192 17.6362C13.552 17.5483 14.1911 17.2469 14.7394 16.6735C14.9786 16.4182 15.0281 16.3889 15.0734 16.4433C15.1146 16.4935 15.1064 16.5354 15.0198 16.6861C14.4756 17.6236 13.4613 18.4272 12.5213 18.6616C12.3151 18.7118 12.2285 18.7537 12.2285 18.7997C12.2285 18.9504 13.5108 18.7411 14.2859 18.4649C16.2691 17.7617 17.9018 16.0917 18.5615 14.0995C18.8336 13.2749 18.8789 12.9485 18.8831 11.923C18.8872 11.1236 18.8748 10.9394 18.7924 10.5334C18.3924 8.51605 17.1102 6.79583 15.2342 5.75784C14.9044 5.57368 14.7436 5.53601 14.7436 5.64483Z" fill="#B3B3B3"/>
</svg>
