<svg width="24" height="24" viewBox="0 0 24 24" fill="none" xmlns="http://www.w3.org/2000/svg">
<rect width="24" height="24" rx="7" fill="#0A1116"/>
<path d="M9.56004 11.1414H9.56543L9.65705 11.1728L9.74867 11.2042L9.8403 11.2408L9.93192 11.2723L10.0235 11.3037L10.1152 11.3351L10.2068 11.3717L10.2984 11.4031L10.39 11.4346L10.4817 11.466L10.5733 11.5026L10.6649 11.534L10.7565 11.5654L10.8481 11.5969L10.9398 11.6335L11.0314 11.6649L11.123 11.6963L11.2092 11.7277L11.3009 11.7644L11.3925 11.7958L11.4841 11.8272V11.6911V11.6649V11.5497V11.4712V11.4136V11.2723V11.1361V11V10.8586V10.7225V10.5812V10.5654H11.3817H11.2739H11.2631H11.1446H11.0583H11.0206H10.902H10.8428H10.7835H10.6649H10.6326H10.5463H10.4224H10.417H10.3038H10.2014H10.1852H10.0667H9.9912H9.77562H9.56543H9.56004H9.43608L9.34985 10.6073L9.13426 10.7173L8.91868 10.8272L8.70849 10.9319L8.49291 11.0419L8.28271 11.1518L8.06713 11.2618L7.85155 11.3665L7.64136 11.4764L7.42577 11.5864L7.21019 11.6911L7.01617 11.7906L7 14.8848L7.21019 15.0314L7.42577 15.178L7.64136 15.3246L7.85155 15.466L8.06713 15.6126L8.28271 15.7592L8.37973 15.8272L8.49291 15.6806L8.70849 15.4084L8.73005 15.3822L8.70849 15.3717L8.49291 15.2251L8.28271 15.0785L8.06713 14.9319L7.85155 14.7853L7.64136 14.6387L7.58207 14.5969L7.59285 12.0942L7.64136 12.0733L7.85155 11.9686L8.06713 11.8639L8.28271 11.7644L8.49291 11.6597L8.70849 11.555L8.91868 11.4555L9.13426 11.3508L9.34985 11.2461L9.56004 11.1414Z" fill="url(#paint0_linear)"/>
<path d="M13.2475 17.0471L13.0642 17.1204L12.8648 17.1937L12.6654 17.2722L12.466 17.3508L12.369 17.3874L12.2666 17.3351L12.0671 17.2408L11.8677 17.1414L11.6683 17.0419L11.4689 16.9476L11.2749 16.8482L11.0755 16.7487L10.8761 16.6544L10.6766 16.555L10.4772 16.4555L10.2778 16.3613L10.0784 16.2618L9.87898 16.1623L9.85743 16.1518V13.6283H9.67957H9.48016H9.28613V16.4974L9.48016 16.5969L9.67957 16.6911L9.87898 16.7906L10.0784 16.89L10.2778 16.9843L10.4772 17.0838L10.6766 17.1832L10.8761 17.2775L11.0755 17.377L11.2749 17.4712L11.4689 17.5707L11.6683 17.6702L11.8677 17.7644L12.0671 17.8639L12.2666 17.9633L12.342 18L12.466 17.9529L12.6654 17.8743L12.8648 17.7958L13.0642 17.7173L13.2636 17.644L13.4576 17.5654L13.2636 17.0838L13.2475 17.0471Z" fill="url(#paint1_linear)"/>
<path d="M16.799 13.534L16.8098 14.7278L16.7505 14.7644L16.4163 15L16.0768 15.2304L15.7372 15.466L15.4031 15.7016L15.0636 15.9372L14.724 16.1675L14.3899 16.4031L14.1851 16.5445L14.0503 16.4398L13.7108 16.1885L13.3766 15.9372L13.0371 15.6859L12.6975 15.4346L12.6436 15.3927V14.1152L12.6975 14.0576L13.0371 13.712L13.3766 13.3717L13.7108 13.0262L14.0503 12.6859L14.3791 12.3508H14.0503H13.7108H13.3766H13.0371H12.6975H12.3634H12.0238H11.6843H11.3502H11.0106H10.6711H10.3369L10.6711 12.6963L11.0106 13.0367L11.3502 13.3822L11.6843 13.7225L12.0238 14.0681L12.067 14.1152V15.6649L12.3634 15.8848L12.6975 16.1361L13.0371 16.3874L13.3766 16.6387L13.7108 16.8953L14.0503 17.1466L14.1743 17.2356L14.3899 17.089L14.724 16.8534L15.0636 16.6178L15.4031 16.3874L15.7372 16.1518L16.0768 15.9162L16.4163 15.6859L16.7505 15.4503L17.09 15.2147L17.3757 15.0209L17.4296 13.555L17.09 13.5445L16.799 13.534Z" fill="url(#paint2_linear)"/>
<path d="M7.54431 10.7696H7.58203L7.59281 9.18325L7.81379 9.05236L8.08326 8.89006L8.34735 8.73299L8.61683 8.57592L8.88631 8.41362L9.15039 8.25655L9.41987 8.09424L9.68935 7.93718L9.95344 7.78011L10.2229 7.6178H10.2283L10.4924 7.75917L10.7565 7.90576L11.026 8.05759L11.2954 8.20419L11.5595 8.35079L11.829 8.50262L12.0985 8.64922L12.3572 8.79058L12.368 8.77487L12.632 8.30367L12.368 8.15707L12.0985 8.00524L11.829 7.85864L11.5595 7.71204L11.2954 7.56545L11.026 7.41362L10.7565 7.26702L10.4924 7.12042L10.2229 6.97383L10.2175 6.96859L9.95344 7.12566L9.68935 7.28273L9.41987 7.43979L9.15039 7.6021L8.88631 7.75917L8.61683 7.92147L8.34735 8.07854L8.08326 8.23561L7.81379 8.39791L7.54431 8.55498L7.28022 8.71728L7.02152 8.86911L7.01074 10.7644L7.28022 10.7696H7.54431Z" fill="url(#paint3_linear)"/>
<path d="M17.9954 9.31414L17.8607 9.20943L17.7206 9.09948L17.5804 8.98953L17.4403 8.88482L17.3002 8.77487L17.16 8.66493L17.0199 8.55498L16.8798 8.44503L16.7397 8.33508L16.6373 8.25655L16.5995 8.29843L16.4594 8.47121L16.3193 8.63875L16.2762 8.6911L16.3193 8.72252L16.4594 8.8377L16.5995 8.95288L16.7397 9.06807L16.8798 9.17802L17.0199 9.2932L17.16 9.40838L17.3002 9.52357L17.3702 9.58116L17.381 12.1309L17.3002 12.1833L17.16 12.267L17.0199 12.356L16.8798 12.4398L16.7397 12.5288L16.5995 12.6126L16.4594 12.7016L16.3193 12.7853L16.1792 12.8744L16.039 12.9581L15.8989 13.0471L15.7588 13.1309L15.6186 13.2199L15.4785 13.3037L15.3384 13.3927L15.1983 13.4764L15.0527 13.5654L15.1983 13.7801L15.3384 13.9948L15.3599 14.0314L15.4785 13.9634L15.6186 13.8796L15.7588 13.7958L15.8989 13.712L16.039 13.6283L16.1792 13.5393L16.3193 13.4555L16.4594 13.3717L16.5995 13.288L16.7397 13.2042L16.8798 13.1204L17.0199 13.0314L17.16 12.9476L17.3002 12.8639L17.4403 12.7801L17.5804 12.6963L17.7206 12.6126L17.8607 12.5288L18.0008 12.4398L17.9954 9.31414Z" fill="url(#paint4_linear)"/>
<path d="M13.4179 10.8377V10.9791V11.1204V11.267V11.4084V11.5497V11.6911V11.8377V11.9476L13.461 11.9267L13.6497 11.8534L13.8329 11.7801L14.0215 11.7068L14.2102 11.6335L14.3934 11.5602L14.5821 11.4869L14.7653 11.4136L14.9539 11.3403L15.1426 11.267L15.3258 11.1937L15.5145 11.1204V10.9791V10.9267V10.5602V7.77487L15.2989 7.65445L15.0833 7.5288L14.8677 7.40838L14.6575 7.28272L14.4419 7.1623L14.2264 7.04189L14.0108 6.91623L13.7952 6.79581L13.585 6.67539L13.3694 6.54974L13.1538 6.42932L12.9382 6.3089L12.7227 6.18325L12.5071 6.06283L12.3993 6L12.2969 6.05236L12.0813 6.16754L11.8657 6.28272L11.6501 6.39267L11.4346 6.50785L11.219 6.62304L11.0088 6.73298L11.219 6.8534L11.4346 6.97382L11.5747 7.05236L11.6501 7.01047L11.8657 6.90052L12.0813 6.79058L12.2969 6.68586L12.3831 6.63874L12.5071 6.71204L12.7227 6.83246L12.9382 6.95288L13.1538 7.07853L13.3694 7.19895L13.585 7.31937L13.7952 7.44503L14.0108 7.56545L14.2264 7.68586L14.4419 7.81152L14.6575 7.93194L14.8677 8.05236L14.9378 8.09424V10.5602H14.8893H14.8677H14.7707H14.6575H14.6467H14.5228H14.4419H14.3988H14.2749H14.2264H14.1509H14.0269H14.0108H13.903H13.7952H13.779H13.6604H13.585H13.5365H13.4449H13.4179" fill="url(#paint5_linear)"/>
<path d="M13.4195 11.9476L15.516 11.1204L13.4141 10.5602" fill="url(#paint6_linear)"/>
<path d="M11.4841 11.9476V10.5759L9.56543 11.1361L11.4841 11.9372" fill="url(#paint7_linear)"/>
<defs>
<linearGradient id="paint0_linear" x1="9.24181" y1="10.5646" x2="9.24181" y2="15.8267" gradientUnits="userSpaceOnUse">
<stop stop-color="#F7EC12"/>
<stop offset="0.1321" stop-color="#F7E213"/>
<stop offset="0.3586" stop-color="#F5C616"/>
<stop offset="0.6522" stop-color="#F49A1B"/>
<stop offset="0.9984" stop-color="#F15C22"/>
<stop offset="1" stop-color="#F15C22"/>
</linearGradient>
<linearGradient id="paint1_linear" x1="11.3719" y1="13.63" x2="11.3719" y2="17.999" gradientUnits="userSpaceOnUse">
<stop stop-color="#F7EC12"/>
<stop offset="0.1321" stop-color="#F7E213"/>
<stop offset="0.3586" stop-color="#F5C616"/>
<stop offset="0.6522" stop-color="#F49A1B"/>
<stop offset="0.9984" stop-color="#F15C22"/>
<stop offset="1" stop-color="#F15C22"/>
</linearGradient>
<linearGradient id="paint2_linear" x1="13.8814" y1="12.3525" x2="13.8814" y2="17.2363" gradientUnits="userSpaceOnUse">
<stop stop-color="#F7EC12"/>
<stop offset="0.1321" stop-color="#F7E213"/>
<stop offset="0.3586" stop-color="#F5C616"/>
<stop offset="0.6522" stop-color="#F49A1B"/>
<stop offset="0.9984" stop-color="#F15C22"/>
<stop offset="1" stop-color="#F15C22"/>
</linearGradient>
<linearGradient id="paint3_linear" x1="9.82168" y1="6.96868" x2="9.82168" y2="10.7693" gradientUnits="userSpaceOnUse">
<stop stop-color="#F7EC12"/>
<stop offset="0.1321" stop-color="#F7E213"/>
<stop offset="0.3586" stop-color="#F5C616"/>
<stop offset="0.6522" stop-color="#F49A1B"/>
<stop offset="0.9984" stop-color="#F15C22"/>
<stop offset="1" stop-color="#F15C22"/>
</linearGradient>
<linearGradient id="paint4_linear" x1="16.5292" y1="8.25569" x2="16.5292" y2="14.0336" gradientUnits="userSpaceOnUse">
<stop stop-color="#F7EC12"/>
<stop offset="0.1321" stop-color="#F7E213"/>
<stop offset="0.3586" stop-color="#F5C616"/>
<stop offset="0.6522" stop-color="#F49A1B"/>
<stop offset="0.9984" stop-color="#F15C22"/>
<stop offset="1" stop-color="#F15C22"/>
</linearGradient>
<linearGradient id="paint5_linear" x1="13.2604" y1="5.99962" x2="13.2604" y2="11.9457" gradientUnits="userSpaceOnUse">
<stop stop-color="#F7EC12"/>
<stop offset="0.1321" stop-color="#F7E213"/>
<stop offset="0.3586" stop-color="#F5C616"/>
<stop offset="0.6522" stop-color="#F49A1B"/>
<stop offset="0.9984" stop-color="#F15C22"/>
<stop offset="1" stop-color="#F15C22"/>
</linearGradient>
<linearGradient id="paint6_linear" x1="14.4649" y1="10.5579" x2="14.4649" y2="11.9457" gradientUnits="userSpaceOnUse">
<stop stop-color="#F7EC12"/>
<stop offset="0.1321" stop-color="#F7E213"/>
<stop offset="0.3586" stop-color="#F5C616"/>
<stop offset="0.6522" stop-color="#F49A1B"/>
<stop offset="0.9984" stop-color="#F15C22"/>
<stop offset="1" stop-color="#F15C22"/>
</linearGradient>
<linearGradient id="paint7_linear" x1="10.5042" y1="11.5991" x2="10.9352" y2="10.3803" gradientUnits="userSpaceOnUse">
<stop stop-color="#F7EC12"/>
<stop offset="0.1321" stop-color="#F7E213"/>
<stop offset="0.3586" stop-color="#F5C616"/>
<stop offset="0.6522" stop-color="#F49A1B"/>
<stop offset="0.9984" stop-color="#F15C22"/>
<stop offset="1" stop-color="#F15C22"/>
</linearGradient>
</defs>
</svg>
