<svg width="24" height="24" viewBox="0 0 24 24" fill="none" xmlns="http://www.w3.org/2000/svg">
<rect width="24" height="24" rx="7" fill="#21BB8B"/>
<path d="M15.0271 11.8972C14.4956 11.4735 13.7114 11.0621 12.6298 10.6392C11.4516 10.1811 10.9724 9.89938 10.7774 9.74337C10.5472 9.55945 10.4401 9.31841 10.4401 8.98541C10.4401 8.74737 10.4401 8.02276 12.3394 8.02276C13.3588 8.02276 14.284 8.18757 15.0893 8.51251C15.1848 8.55109 15.2923 8.54548 15.3832 8.49697C15.4738 8.44865 15.539 8.36268 15.5605 8.26192L15.9235 6.56435C15.9617 6.38511 15.8548 6.20663 15.6781 6.15624C15.0135 5.96633 14.1542 5.85115 13.1198 5.81295V4.37645C13.1278 4.27943 13.0945 4.18373 13.029 4.11219C12.9627 4.04083 12.8698 4 12.7731 4H11.5788C11.4814 4 11.3885 4.04083 11.3224 4.11237C11.2563 4.18392 11.2233 4.28018 11.2314 4.37701L11.2413 5.89198C10.1947 6.05174 9.38715 6.44223 8.83727 7.05466C8.23439 7.72665 7.92855 8.51401 7.92855 9.39501C7.92855 10.4154 8.36643 11.2831 9.23226 11.9753C9.73925 12.3744 10.5298 12.7853 11.6498 13.2316C12.5032 13.5685 13.0923 13.8626 13.4002 14.1059C13.7202 14.3587 13.8761 14.6522 13.8761 15.003C13.8761 15.6572 13.1151 15.989 11.614 15.989C10.5144 15.989 9.46562 15.7999 8.49603 15.427C8.40089 15.3903 8.29413 15.3972 8.20442 15.4463C8.11471 15.4952 8.05085 15.5808 8.02987 15.6804L7.66672 17.4014C7.62758 17.5874 7.74463 17.7705 7.92967 17.813C8.96275 18.0516 10.0678 18.1831 11.2196 18.2052L11.2258 19.6307C11.2203 19.7266 11.2404 19.8206 11.3063 19.8904C11.3722 19.9605 11.464 20 11.5601 20H12.7733C12.7748 20 12.7763 20 12.7774 20C12.9702 20 13.126 19.844 13.126 19.6515C13.126 19.6247 13.123 19.5985 13.1172 19.5735L13.1217 18.0887C15.2296 17.7175 16.3408 16.4655 16.3408 14.4531C16.3411 13.4562 15.899 12.5965 15.0271 11.8972Z" fill="white"/>
</svg>
