<svg width="24" height="24" viewBox="0 0 24 24" fill="none" xmlns="http://www.w3.org/2000/svg">
<rect width="24" height="24" rx="7" fill="#53AE94"/>
<path fill-rule="evenodd" clip-rule="evenodd" d="M13.4243 12.9882C13.3447 12.9942 12.9337 13.0189 12.0169 13.0189C11.2877 13.0189 10.77 12.9969 10.5883 12.9882C7.7703 12.8632 5.66689 12.3687 5.66689 11.7766C5.66689 11.1845 7.7703 10.6906 10.5883 10.5637V12.4957C10.7726 12.509 11.3003 12.5404 12.0295 12.5404C12.9045 12.5404 13.3427 12.5037 13.4216 12.4963V10.565C16.2337 10.6913 18.3325 11.1858 18.3325 11.7766C18.3325 12.3673 16.2343 12.8619 13.4216 12.9875L13.4243 12.9882ZM13.4243 10.3652V8.63635H17.3487V6H6.6639V8.63635H10.5877V10.3645C7.39841 10.5122 5 11.1491 5 11.9122C5 12.6754 7.39841 13.3116 10.5877 13.46V19H13.4236V13.458C16.6056 13.3103 19 12.6741 19 11.9116C19 11.1491 16.6076 10.5129 13.4236 10.3645L13.4243 10.3652Z" fill="white"/>
</svg>
