<svg width="24" height="24" viewBox="0 0 24 24" fill="none" xmlns="http://www.w3.org/2000/svg">
<rect width="24" height="24" rx="7" fill="#F2A900"/>
<g clip-path="url(#clip0)">
<path d="M17.3255 12.394C16.9538 11.9133 16.3929 11.5832 15.6428 11.4037C16.598 10.9165 17.0178 10.0896 16.9025 8.92275C16.864 8.49964 16.7471 8.13295 16.5514 7.82212C16.3557 7.51123 16.0916 7.2613 15.758 7.07223C15.4247 6.88292 15.0622 6.73881 14.6714 6.63945C14.2804 6.5401 13.8316 6.46796 13.3252 6.42313V4H11.8445V6.35581C11.5881 6.35581 11.1971 6.36221 10.6715 6.37504V4H9.19064V6.42313C8.97904 6.42957 8.66818 6.43283 8.25794 6.43283L6.21948 6.42313V8.00012H7.28674C7.77394 8.00012 8.0592 8.21812 8.14252 8.65396V11.4137C8.20671 11.4137 8.25794 11.417 8.29643 11.4234H8.14252V15.2887C8.09129 15.6155 7.90542 15.7791 7.58486 15.7791H6.51768L6.21955 17.5388H8.14269C8.2645 17.5388 8.44068 17.5404 8.67155 17.5433C8.90228 17.5466 9.07529 17.5482 9.19071 17.5482V20.0001H10.6718V17.577C10.941 17.5836 11.332 17.5867 11.8448 17.5867V20.0001H13.3255V17.5482C13.8513 17.5226 14.3176 17.4748 14.7245 17.404C15.1315 17.3332 15.5211 17.2228 15.8928 17.0721C16.2645 16.9215 16.5753 16.7339 16.8253 16.5095C17.0754 16.2854 17.2819 16 17.4457 15.6538C17.6089 15.3075 17.7132 14.9069 17.7579 14.4517C17.8416 13.5609 17.6973 12.8749 17.3255 12.394ZM10.7003 8.1056C10.7452 8.1056 10.8718 8.10398 11.0801 8.10075C11.2886 8.09745 11.4616 8.09428 11.5994 8.09105C11.7372 8.08789 11.9232 8.0959 12.1572 8.11513C12.3912 8.13436 12.5883 8.16006 12.7485 8.19205C12.9087 8.22405 13.0851 8.27696 13.2773 8.35068C13.4698 8.42434 13.6235 8.51413 13.7387 8.61988C13.8542 8.72563 13.952 8.86031 14.032 9.02379C14.1122 9.18723 14.1523 9.37472 14.1523 9.58623C14.1523 9.76574 14.1235 9.92925 14.0658 10.0768C14.0083 10.2242 13.9216 10.3476 13.8063 10.447C13.691 10.5463 13.5722 10.633 13.4504 10.7066C13.3287 10.7803 13.1731 10.8396 12.9841 10.8845C12.7951 10.9293 12.63 10.9646 12.4891 10.9902C12.348 11.0159 12.1718 11.0335 11.9602 11.0431C11.7486 11.0527 11.5883 11.0592 11.4794 11.0624C11.3703 11.0655 11.2213 11.0655 11.0322 11.0624C10.843 11.0592 10.7325 11.0575 10.7004 11.0575V8.10557H10.7003V8.1056ZM14.7438 14.6537C14.6827 14.8012 14.6043 14.9295 14.5082 15.0385C14.412 15.1473 14.2853 15.2436 14.1283 15.3268C13.9714 15.4103 13.819 15.4775 13.6717 15.5287C13.5242 15.5802 13.3462 15.6249 13.1381 15.6635C12.9295 15.702 12.7469 15.729 12.5897 15.7452C12.4327 15.7612 12.2453 15.774 12.0273 15.7837C11.8094 15.7931 11.6394 15.798 11.5177 15.798C11.3958 15.798 11.242 15.7963 11.0561 15.7931C10.87 15.7901 10.7516 15.7885 10.7002 15.7885V12.5383C10.7515 12.5383 10.9037 12.5352 11.157 12.5287C11.4103 12.5222 11.6169 12.5192 11.7772 12.5192C11.9374 12.5192 12.1587 12.5287 12.4408 12.548C12.7227 12.5671 12.9599 12.5958 13.1524 12.6343C13.3446 12.6728 13.5544 12.732 13.7822 12.8123C14.0097 12.8924 14.1941 12.9901 14.3351 13.1055C14.4762 13.2211 14.5947 13.3683 14.6908 13.5478C14.7872 13.7273 14.8352 13.9324 14.8352 14.1633C14.8352 14.3429 14.8048 14.5062 14.7438 14.6537Z" fill="white"/>
</g>
<defs>
<clipPath id="clip0">
<rect width="16" height="16" fill="white" transform="translate(4 4)"/>
</clipPath>
</defs>
</svg>
