<svg width="24" height="24" viewBox="0 0 24 24" fill="none" xmlns="http://www.w3.org/2000/svg">
<rect width="24" height="24" rx="7" fill="black"/>
<path fill-rule="evenodd" clip-rule="evenodd" d="M12 4.00002C12.0509 3.99926 12.1004 4.02462 12.1319 4.07043L15.3908 8.81573C15.4043 8.83534 15.4138 8.85778 15.4186 8.88161L16.9962 16.5593C17.011 16.6314 16.9819 16.7058 16.9236 16.7448L12.0871 19.9739C12.0604 19.9918 12.0301 20.0004 12 20C11.9699 20.0004 11.9396 19.9918 11.9129 19.9739L7.07639 16.7448C7.01811 16.7058 6.989 16.6315 7.00383 16.5593L8.58071 8.88162C8.58561 8.85779 8.5951 8.83533 8.60858 8.81572L11.8682 4.07041C11.8996 4.02461 11.9491 3.99926 12 4.00002ZM11.8365 4.70093L8.91712 8.95093L9.68143 11.5084L11.8365 7.45597V4.70093ZM12 7.84772L9.81521 11.956L11.1502 16.423H12.8496L14.1845 11.9555L12 7.84772ZM14.4015 12.3635L13.1885 16.423H16.5603L14.4015 12.3635ZM16.2719 16.7708H13.0846L12.2903 19.4292L16.2719 16.7708ZM12 19.2665L12.7457 16.7708H11.2541L12 19.2665ZM10.8113 16.423L9.59823 12.364L7.43971 16.423H10.8113ZM7.54743 15.5212L9.46445 11.9164L8.76707 9.58291L7.54743 15.5212ZM7.72814 16.7708H10.9152L11.7097 19.4292L7.72814 16.7708ZM16.4524 15.5209L14.5353 11.9158L15.2323 9.58287L16.4524 15.5209ZM15.0822 8.95093L14.3183 11.5078L12.1635 7.45597V4.70101L15.0822 8.95093Z" fill="white"/>
</svg>
