<svg width="24" height="24" viewBox="0 0 24 24" fill="none" xmlns="http://www.w3.org/2000/svg">
<rect width="24" height="24" rx="7" fill="#002C54"/>
<path d="M7.33464 16.2717C7.35632 16.1762 7.38549 16.047 7.41348 15.9183C7.68705 14.727 7.96534 13.5364 8.23221 12.344C8.26965 12.1779 8.31893 12.1412 8.49079 12.2167C11.0617 13.348 13.6349 14.4742 16.2105 15.5954C16.4293 15.6906 16.4845 15.8707 16.5653 16.0433C16.7462 16.4209 16.7707 16.3453 16.4053 16.5511C15.0043 17.3441 13.6002 18.1348 12.2017 18.9326C12.046 19.0213 11.9289 19.0236 11.772 18.9326C10.3529 18.1185 8.92873 17.3124 7.5073 16.502C7.43083 16.4605 7.31809 16.4337 7.33464 16.2717Z" fill="#FEFEFE"/>
<path d="M16.0462 12.4014C16.0564 12.4935 16.0213 12.5124 15.9547 12.4856C15.9062 12.466 15.8593 12.4433 15.812 12.4214C13.4911 11.3453 11.1694 10.2701 8.84716 9.19601C8.68594 9.12049 8.65007 9.04761 8.68949 8.87921C8.79394 8.40344 9.00483 7.98847 9.30363 7.59237C10.1614 6.45695 10.9923 5.30265 11.8339 4.15628C11.9861 3.94899 11.9896 3.94861 12.1406 4.151C13.1111 5.44866 14.0812 6.74682 15.0509 8.04548C15.1127 8.12678 15.1554 8.2199 15.1762 8.31848C15.4613 9.65466 15.7469 10.9908 16.0328 12.327C16.0395 12.3576 16.0442 12.3889 16.0462 12.4014Z" fill="#FEFEFE"/>
<path d="M6 14.295C6.01104 14.2474 6.02326 14.1859 6.03942 14.1251C6.38105 12.8073 6.72399 11.4895 7.06824 10.1717C7.07297 10.1536 7.0781 10.1339 7.08322 10.1169C7.15694 9.86886 7.25706 9.82355 7.50067 9.9323C8.86849 10.5435 10.2363 11.1554 11.6041 11.7682L17.241 14.2927C17.2651 14.3037 17.2883 14.315 17.3127 14.3241C17.3608 14.3418 17.4109 14.3845 17.4598 14.3547C17.5236 14.3169 17.4858 14.2512 17.4752 14.1995C17.3614 13.6376 17.246 13.0761 17.1291 12.515C17.0003 11.8925 16.8715 11.2697 16.7428 10.6467C16.7274 10.5858 16.722 10.523 16.7266 10.4606C16.7291 10.4225 16.7455 10.3866 16.7729 10.359C16.8002 10.3314 16.8369 10.3139 16.8764 10.3095C16.9714 10.2959 17.0482 10.3254 17.0849 10.4134C17.1104 10.478 17.1298 10.5447 17.1429 10.6127C17.4172 11.9184 17.6912 13.2245 17.9647 14.531C17.9738 14.574 17.9797 14.6178 17.9892 14.6609C18.0101 14.7519 18.0065 14.838 17.9261 14.9025C17.8374 14.9739 17.7432 14.952 17.6502 14.9101C17.0983 14.6624 16.5453 14.4148 15.991 14.1674L7.69776 10.4485C7.45297 10.3386 7.44982 10.3397 7.38556 10.5859C7.07022 11.7942 6.75487 13.0017 6.43952 14.2085C6.42538 14.2699 6.40694 14.3304 6.38433 14.3894C6.34491 14.4812 6.27081 14.5329 6.16832 14.5159C6.05243 14.497 6.00907 14.4136 6 14.295Z" fill="#FEFEFE"/>
<path d="M11.4602 18.2575C11.3629 18.2575 11.3128 18.2118 11.2576 18.1819C10.1622 17.5589 9.06949 16.9325 7.9705 16.3174C7.80888 16.2271 7.77774 16.1354 7.81716 15.9685C8.058 14.9501 8.2886 13.9306 8.52236 12.9111C8.57202 12.6944 8.5803 12.6906 8.7908 12.7824C9.20903 12.9647 9.62568 13.1501 10.0447 13.3303C10.1472 13.3741 10.217 13.4315 10.2453 13.5417C10.644 15.0793 11.044 16.6164 11.4452 18.1532C11.4539 18.1835 11.4543 18.214 11.4602 18.2575Z" fill="#002C54"/>
<path d="M12.3695 18.2454C12.4373 17.9969 12.5051 17.7478 12.5729 17.4981C12.8007 16.6584 13.0309 15.819 13.2529 14.9777C13.2954 14.8172 13.3498 14.7734 13.5205 14.8504C14.3231 15.2103 15.1308 15.5592 15.9365 15.913C15.9956 15.9387 16.0603 15.9587 16.0989 16.0146C16.175 16.1252 16.2097 16.2158 16.0496 16.3057C14.8694 16.9653 13.6963 17.631 12.5201 18.2963C12.4775 18.3201 12.4334 18.3658 12.3782 18.3341C12.3443 18.3152 12.3691 18.2767 12.3695 18.2454Z" fill="#002C54"/>
<path d="M11.9297 18.251C11.8575 18.1816 11.8583 18.1083 11.8414 18.0434C11.4774 16.6548 11.1152 15.266 10.7546 13.877C10.7377 13.8121 10.6844 13.7316 10.7385 13.681C10.7992 13.624 10.8721 13.6954 10.9332 13.7222C11.5422 13.9865 12.1485 14.2557 12.7583 14.5185C12.8765 14.5695 12.9333 14.6224 12.8958 14.7591C12.5832 15.8941 12.2762 17.031 11.9671 18.1672C11.9567 18.1959 11.9442 18.224 11.9297 18.251V18.251Z" fill="#002C54"/>
<path d="M12.249 5.01947C12.3223 5.03457 12.344 5.10065 12.3803 5.14898C13.1337 6.1559 13.8863 7.16281 14.6382 8.16972C14.7193 8.27597 14.7752 8.39786 14.8022 8.52692C15.0186 9.55586 15.2401 10.5833 15.4581 11.6118C15.4699 11.6681 15.5208 11.7402 15.4486 11.7837C15.3938 11.8165 15.3363 11.7667 15.2847 11.7429C14.9472 11.5884 14.6122 11.4295 14.2736 11.2773C14.1721 11.232 14.092 11.152 14.0489 11.053C13.4608 9.83238 12.8708 8.61213 12.279 7.39226C12.2353 7.30751 12.2117 7.21453 12.21 7.12001C12.21 6.45998 12.21 5.80008 12.21 5.1403C12.2104 5.09688 12.1982 5.04854 12.249 5.01947Z" fill="#002C54"/>
<path d="M11.7939 4.9666C11.7939 5.37931 11.7663 5.77011 11.7998 6.15639C11.8685 6.87257 11.7079 7.59182 11.3394 8.21842C11.1147 8.60772 10.9452 9.02685 10.7592 9.43578C10.702 9.56076 10.6409 9.59437 10.5061 9.52867C10.1022 9.33307 9.69486 9.14428 9.28412 8.96228C9.15758 8.90602 9.1296 8.83578 9.16153 8.71005C9.21656 8.47746 9.3189 8.25754 9.46268 8.06285C10.1852 7.0898 10.8979 6.10957 11.6161 5.13274C11.6563 5.07874 11.6823 5.01002 11.7939 4.9666Z" fill="#002C54"/>
<path d="M13.4942 10.8665C13.4012 10.8887 13.3487 10.843 13.292 10.817C12.6061 10.5002 11.9226 10.1781 11.2339 9.8666C11.0869 9.80014 11.0601 9.73406 11.1287 9.59322C11.377 9.08649 11.6135 8.57372 11.8556 8.06511C11.8851 8.00318 11.91 7.93408 12.0026 7.93295C12.0952 7.93182 12.1232 7.9979 12.1536 8.06058C12.593 8.9668 13.0319 9.87415 13.4705 10.7826C13.4806 10.81 13.4885 10.838 13.4942 10.8665V10.8665Z" fill="#002C54"/>
</svg>
