<svg width="16" height="16" viewBox="0 0 16 16" fill="none" xmlns="http://www.w3.org/2000/svg">
<path d="M8.36839 9.16667C8.36839 9.38144 8.20346 9.55556 8 9.55556C7.79654 9.55556 7.63161 9.38144 7.63161 9.16667V6.05556C7.63161 5.84078 7.79654 5.66667 8 5.66667C8.20346 5.66667 8.36839 5.84078 8.36839 6.05556V9.16667ZM7.63161 11.1111H8.36839V11.8889H7.63161V11.1111ZM7.67442 1.20693C7.81279 0.931022 8.18721 0.931022 8.32558 1.20693L14.9567 14.4292C15.0866 14.6882 14.9087 15 14.6311 15H1.3689C1.09129 15 0.913425 14.6882 1.04332 14.4292L7.67442 1.20693ZM1.98077 14.2222H14.0192L8 2.22005L1.98077 14.2222Z" fill="#E03D54"/>
</svg>
